<?xml version="1.0" encoding="UTF-8"?>
<svg width="26px" height="20px" viewBox="0 0 26 20" version="1.1" xmlns="http://www.w3.org/2000/svg" xmlns:xlink="http://www.w3.org/1999/xlink">
    <!-- Generator: sketchtool 59.1 (101010) - https://sketch.com -->
    <title>shapeGroup8852</title>
    <desc>Created with sketchtool.</desc>
    <g id="Page-1" stroke="none" stroke-width="1" fill="none" fill-rule="evenodd">
        <g id="Login" transform="translate(-709.000000, -649.000000)" fill="#FFFFFF">
            <g id="Signin-with" transform="translate(631.000000, 605.000000)">
                <g id="G+" transform="translate(70.000000, 33.000000)">
                    <path d="M17.976565,11.009562 C20.694996,11.009562 23.158343,12.099647 24.958228,13.867174 L24.958228,13.867174 L22.705073,16.32224 C21.499688,15.10025 19.826823,14.343182 17.976565,14.343182 C14.303454,14.343182 11.32556,17.328076 11.32556,21.010399 C11.32556,24.692722 14.303454,27.677938 17.976565,27.677938 C20.954459,27.677938 23.475835,25.715762 24.323215,23.010686 L24.323215,23.010686 L18.642202,23.010686 L18.642202,19.899407 L27.953638,19.899407 L27.953638,23.010686 C27.028509,27.575542 22.803615,31.011535 17.976565,31.011535 C12.466333,31.011535 7.999492,26.534033 7.999492,21.010399 C7.999492,15.487087 12.466333,11.009263 17.976565,11.009562 Z M32.095331,17.984588 L32.095331,19.893864 L34.000312,19.893864 L34.000312,21.530383 L32.095331,21.530383 L32.095331,23.439958 L30.462979,23.439958 L30.462979,21.530383 L28.557969,21.530383 L28.557969,19.893864 L30.462979,19.893864 L30.462979,17.984588 L32.095331,17.984588 Z" id="Combined-shape-8852"></path>
                </g>
            </g>
        </g>
    </g>
</svg>