<?xml version="1.0" encoding="UTF-8"?>
<svg width="20px" height="25px" viewBox="0 0 20 25" version="1.1" xmlns="http://www.w3.org/2000/svg" xmlns:xlink="http://www.w3.org/1999/xlink">
    <!-- Generator: sketchtool 59.1 (101010) - https://sketch.com -->
    <title>shapeGroup8854</title>
    <desc>Created with sketchtool.</desc>
    <g id="Page-1" stroke="none" stroke-width="1" fill="none" fill-rule="evenodd">
        <g id="Login" transform="translate(-782.000000, -646.000000)" fill="#FFFFFF">
            <g id="Signin-with" transform="translate(631.000000, 605.000000)">
                <g id="ptrst" transform="translate(140.000000, 32.000000)">
                    <path d="M19.221864,25.553736 C18.54636,28.99621 17.72196,32.296294 15.280512,34.020141 C14.527272,28.817541 16.387368,24.910139 17.251176,20.76166 C15.778656,18.349933 17.428536,13.495101 20.535648,14.691583 C24.358752,16.162985 17.224896,23.658905 22.01364,24.595576 C27.01368,25.572789 29.054424,16.156518 25.953888,13.094118 C21.474984,8.672575 12.914616,12.993256 13.966728,19.324101 C14.222904,20.872034 15.867336,21.341283 14.623608,23.477191 C11.757384,22.859114 10.901232,20.659551 11.011824,17.726317 C11.189184,12.926556 15.444744,9.565572 19.714512,9.100615 C25.113072,8.512669 30.180984,11.028651 30.880584,15.969555 C31.66884,21.546081 28.443504,27.585708 22.670544,27.151201 C21.104952,27.032823 20.448048,26.278823 19.221864,25.553736 Z" id="Forma-1-copy-5"></path>
                </g>
            </g>
        </g>
    </g>
</svg>