<?xml version="1.0" encoding="UTF-8"?>
<svg width="14px" height="22px" viewBox="0 0 14 22" version="1.1" xmlns="http://www.w3.org/2000/svg" xmlns:xlink="http://www.w3.org/1999/xlink">
    <!-- Generator: sketchtool 59.1 (101010) - https://sketch.com -->
    <title>shapeGroup8850</title>
    <desc>Created with sketchtool.</desc>
    <g id="Page-1" stroke="none" stroke-width="1" fill="none" fill-rule="evenodd">
        <g id="Login" transform="translate(-645.000000, -648.000000)" fill="#FFFFFF">
            <g id="Signin-with" transform="translate(631.000000, 605.000000)">
                <g id="fb" transform="translate(0.000000, 33.000000)">
                    <path d="M26.555088,10.995744 L23.67024,10.991736 C20.429568,10.991736 18.336288,12.926832 18.336288,15.922512 L18.336288,18.195864 L15.436112,18.195864 C15.185392,18.195864 14.98176,18.378504 14.98176,18.60576 L14.98176,21.899088 C14.98176,22.124784 15.185392,22.307448 15.436112,22.307448 L18.335184,22.307448 L18.335184,30.620112 C18.335184,30.845808 18.538816,31.029384 18.789536,31.029384 L22.573232,31.029384 C22.823936,31.029384 23.02648,30.845496 23.02648,30.620112 L23.02648,22.307448 L26.418224,22.307448 C26.66784,22.307448 26.871488,22.124784 26.871488,21.899088 L26.872576,18.60576 C26.872576,18.497208 26.8244,18.392664 26.740112,18.316392 C26.654704,18.23892 26.53976,18.195864 26.419328,18.195864 L23.02648,18.195864 L23.02648,16.26876 C23.02648,15.342552 23.271728,14.87208 24.611776,14.87208 L26.555088,14.87148 C26.804704,14.87148 27.008336,14.688504 27.008336,14.462808 L27.008336,11.404416 C27.008336,11.178696 26.804704,10.995744 26.555088,10.995744 Z" id="Forma-1-copy-5"></path>
                </g>
            </g>
        </g>
    </g>
</svg>