<?xml version="1.0" encoding="UTF-8"?>
<svg width="32px" height="27px" viewBox="0 0 32 27" version="1.1" xmlns="http://www.w3.org/2000/svg" xmlns:xlink="http://www.w3.org/1999/xlink">
    <!-- Generator: sketchtool 59.1 (101010) - https://sketch.com -->
    <title>E90DBE68-47D1-47D9-929B-58B98CAAC6EC</title>
    <desc>Created with sketchtool.</desc>
    <g id="Page-1" stroke="none" stroke-width="1" fill="none" fill-rule="evenodd">
        <g id="Корзина" transform="translate(-1250.000000, -40.000000)" fill="#C8C8C8">
            <g id="Header">
                <g id="car-icon">
                    <path d="M1261.65626,49.0022143 L1261.65569,49.03148 C1261.65569,50.89523 1263.08334,52.4063 1264.8438,52.4063 C1266.60427,52.4063 1268.03192,50.89523 1268.03192,49.03148 C1268.03192,49.0217714 1268.03188,49.0120724 1268.0318,49.0023831 L1280.39133,49.00289 C1281.28033,49.00289 1282.0007,49.75811 1282.0007,50.69015 C1282.0007,51.62156 1281.28033,52.37708 1280.39133,52.37708 L1279.39626,52.3762143 L1273.42391,66.99995 L1258.41721,66.99995 L1252.44326,52.3762143 L1251.60747,52.37708 C1250.72064,52.37708 1250.00027,51.62156 1250.00027,50.69015 C1250.00027,49.75811 1250.72063,49.00289 1251.60746,49.00289 L1261.65626,49.0022143 Z M1260.97035,54.59387 L1260.53023,54.59387 C1259.97954,54.59387 1259.53066,55.04066 1259.53066,55.592 L1259.53066,55.592 L1259.53066,62.6267 C1259.53066,63.17804 1259.97954,63.62513 1260.53023,63.62513 L1260.53023,63.62513 L1260.97035,63.62513 C1261.52213,63.62513 1261.9688,63.17804 1261.9688,62.6267 L1261.9688,62.6267 L1261.9688,55.592 C1261.9688,55.04066 1261.52213,54.59387 1260.97035,54.59387 L1260.97035,54.59387 Z M1266.18934,54.59387 L1265.71747,54.59387 C1265.16678,54.59387 1264.71791,55.04066 1264.71791,55.592 L1264.71791,55.592 L1264.71791,62.6267 C1264.71791,63.17804 1265.16678,63.62513 1265.71747,63.62513 L1265.71747,63.62513 L1266.18934,63.62513 C1266.74003,63.62513 1267.18782,63.17804 1267.18782,62.6267 L1267.18782,62.6267 L1267.18782,55.592 C1267.18782,55.04066 1266.74003,54.59387 1266.18934,54.59387 L1266.18934,54.59387 Z M1271.34484,54.59387 L1270.87406,54.59387 C1270.32228,54.59387 1269.87558,55.04066 1269.87558,55.592 L1269.87558,55.592 L1269.87558,62.6267 C1269.87558,63.17804 1270.32228,63.62513 1270.87406,63.62513 L1270.87406,63.62513 L1271.34484,63.62513 C1271.89662,63.62513 1272.34441,63.17804 1272.34441,62.6267 L1272.34441,62.6267 L1272.34441,55.592 C1272.34441,55.04066 1271.89662,54.59387 1271.34484,54.59387 L1271.34484,54.59387 Z M1269.52852,40.18778 C1270.18872,40.6112 1270.41314,41.54846 1270.03325,42.28184 L1266.35794,49.36205 C1265.97693,50.09513 1265.13392,50.34665 1264.47487,49.92323 C1263.81578,49.50011 1263.59024,48.56225 1263.97013,47.82917 L1267.64545,40.74896 C1268.02646,40.01558 1268.86835,39.76466 1269.52852,40.18778 Z"></path>
                </g>
            </g>
        </g>
    </g>
</svg>