<?xml version="1.0" encoding="UTF-8"?>
<svg width="10px" height="8px" viewBox="0 0 10 8" version="1.1" xmlns="http://www.w3.org/2000/svg" xmlns:xlink="http://www.w3.org/1999/xlink">
    <!-- Generator: sketchtool 59.1 (101010) - https://sketch.com -->
    <title>017092C8-B90C-487A-A8D2-68A8F5FD9731</title>
    <desc>Created with sketchtool.</desc>
    <g id="Page-1" stroke="none" stroke-width="1" fill="none" fill-rule="evenodd">
        <g id="Заказ-/-Шаг-1" transform="translate(-968.000000, -660.000000)" fill="#8BC34A">
            <path d="M968.115568,664.399708 C968.038932,664.319752 967.999508,664.199824 967.999508,664.11988 C967.999508,664.039924 968.038932,663.919696 968.115568,663.83974 L968.654218,663.279784 C968.80749,663.119884 969.03849,663.119884 969.191762,663.279784 L969.231186,663.319768 L971.346376,665.679832 C971.423012,665.759776 971.537966,665.759776 971.615694,665.679832 L976.76901,660.119608 L976.807328,660.119608 L976.807328,660.119608 L976.807328,660.119608 C976.961692,659.959708 977.192706,659.959708 977.345978,660.119608 L977.884628,660.679564 C978.0379,660.839776 978.0379,661.07962 977.884628,661.239832 L977.884628,661.239832 L977.884628,661.239832 L971.730648,667.879996 C971.654012,667.95994 971.577376,667.999924 971.46133,667.999924 C971.346376,667.999924 971.268634,667.95994 971.191998,667.879996 L968.192204,664.519936 L968.115568,664.399708 Z" id="check-mark"></path>
        </g>
    </g>
</svg>