<?xml version="1.0" encoding="UTF-8"?>
<svg width="9px" height="13px" viewBox="0 0 9 13" version="1.1" xmlns="http://www.w3.org/2000/svg" xmlns:xlink="http://www.w3.org/1999/xlink">
    <!-- Generator: sketchtool 59.1 (101010) - https://sketch.com -->
    <title>B74287A9-7DED-4EEC-B375-6D1B808E319D</title>
    <desc>Created with sketchtool.</desc>
    <g id="Page-1" stroke="none" stroke-width="1" fill="none" fill-rule="evenodd">
        <g id="Корзина" transform="translate(-1094.000000, -1072.000000)" fill="#FFFFFF">
            <g id="Footer" transform="translate(0.000000, 972.000000)">
                <g id="secondary-footer" transform="translate(79.000000, 50.000000)">
                    <g id="Follow-Us" transform="translate(1011.000000, 0.000000)">
                        <g id="fb-icon" transform="translate(0.000000, 47.000000)">
                            <path d="M11.733076,3.49652 L10.005449,3.494375 C8.065434,3.494375 6.810774,4.618895 6.810774,6.359975 L6.810774,7.680995 L5.073291,7.680995 C4.924395,7.680995 4.801778,7.78739 4.801778,7.9193 L4.801778,9.833495 C4.801778,9.96449 4.924395,10.070885 5.073291,10.070885 L6.809674,10.070885 L6.809674,14.90171 C6.809674,15.032705 6.932302,15.139715 7.081187,15.139715 L9.347462,15.139715 C9.498547,15.139715 9.620075,15.032705 9.620075,14.90171 L9.620075,10.070885 L11.650961,10.070885 C11.800957,10.070885 11.922474,9.96449 11.922474,9.833495 L11.923574,7.9193 C11.923574,7.855955 11.895106,7.795685 11.844748,7.751405 C11.79329,7.705895 11.72432,7.680995 11.652061,7.680995 L9.620075,7.680995 L9.620075,6.56108 C9.620075,6.022955 9.766782,5.74928 10.569287,5.74928 L11.731976,5.74928 C11.884161,5.74928 12.004589,5.642885 12.004589,5.511575 L12.004589,3.734225 C12.004589,3.602915 11.884161,3.49652 11.733076,3.49652 Z" id="Forma-1-copy"></path>
                        </g>
                    </g>
                </g>
            </g>
        </g>
    </g>
</svg>