<?xml version="1.0" encoding="UTF-8"?>
<svg width="12px" height="11px" viewBox="0 0 12 11" version="1.1" xmlns="http://www.w3.org/2000/svg" xmlns:xlink="http://www.w3.org/1999/xlink">
    <!-- Generator: sketchtool 59.1 (101010) - https://sketch.com -->
    <title>99FBDE94-CA2C-47A8-A1ED-D72E279A0AFD</title>
    <desc>Created with sketchtool.</desc>
    <g id="Page-1" stroke="none" stroke-width="1" fill="none" fill-rule="evenodd">
        <g id="Корзина" transform="translate(-1093.000000, -1165.000000)" fill="#FFFFFF">
            <g id="Footer" transform="translate(0.000000, 972.000000)">
                <g id="secondary-footer" transform="translate(79.000000, 50.000000)">
                    <g id="Follow-Us" transform="translate(1011.000000, 0.000000)">
                        <g id="insta-icon" transform="translate(0.000000, 139.000000)">
                            <path d="M13.016208,4.020955 C13.395006,4.020955 13.72017,4.153191 13.992778,4.417325 C14.265386,4.68116 14.400052,4.99758 14.400052,5.365961 L14.400052,5.365961 L14.400052,13.161411 C14.400052,13.529792 14.265386,13.846524 13.992778,14.110047 C13.72017,14.374194 13.395006,14.506417 13.016208,14.506417 L13.016208,14.506417 L4.984618,14.506417 C4.604714,14.506417 4.278458,14.374194 4.008034,14.110047 C3.735426,13.846524 3.598576,13.529792 3.598576,13.161411 L3.598576,13.161411 L3.598576,5.365961 C3.598576,4.99758 3.735426,4.680861 4.008034,4.417325 C4.278458,4.153191 4.604714,4.020955 4.984618,4.020955 L4.984618,4.020955 Z M5.793692,8.458193 L4.801778,8.458193 L4.801778,12.881586 C4.801778,12.999977 4.843386,13.098985 4.924404,13.178324 C5.006514,13.258274 5.109428,13.297937 5.230948,13.297937 L5.230948,13.297937 L12.747968,13.297937 C12.86512,13.297937 12.965836,13.258274 13.050144,13.178324 C13.13553,13.098673 13.177138,12.999977 13.177138,12.881586 L13.177138,12.881586 L13.177138,8.458193 L12.227938,8.458193 C12.322088,8.744778 12.368064,9.04305 12.368064,9.352398 C12.368064,9.925893 12.219174,10.454785 11.918104,10.939412 C11.618112,11.424338 11.210852,11.807487 10.69519,12.089769 C10.179528,12.371752 9.616784,12.513192 9.006972,12.513192 C8.08405,12.513192 7.293582,12.20478 6.637794,11.58793 C5.9809,10.971392 5.65246,10.226011 5.65246,9.352398 C5.65246,9.04305 5.699528,8.744778 5.793692,8.458193 L5.793692,8.458193 Z M9.006972,7.202055 C8.411398,7.202055 7.90121,7.401306 7.477514,7.799223 C7.053818,8.197426 6.840332,8.678972 6.840332,9.242925 C6.840332,9.80719 7.053818,10.288437 7.477514,10.68664 C7.90121,11.084856 8.411398,11.28412 9.006972,11.28412 C9.608034,11.28412 10.119314,11.084856 10.544102,10.68664 C10.967798,10.288437 11.180192,9.80719 11.180192,9.242925 C11.180192,8.678972 10.967798,8.197426 10.544102,7.799223 C10.119314,7.401306 9.608034,7.202055 9.006972,7.202055 Z M12.692136,5.188537 L11.46813,5.188537 C11.333464,5.188537 11.217418,5.234973 11.123254,5.328456 C11.030196,5.421627 10.983128,5.532023 10.983128,5.659319 L10.983128,5.659319 L10.983128,6.786003 C10.983128,6.917615 11.030196,7.029233 11.123254,7.120259 C11.217418,7.210973 11.333464,7.256785 11.46813,7.256785 L11.46813,7.256785 L12.692136,7.256785 C12.827894,7.256785 12.942848,7.210973 13.036998,7.120259 C13.131162,7.029233 13.177138,6.917615 13.177138,6.786003 L13.177138,6.786003 L13.177138,5.659319 C13.177138,5.532023 13.131162,5.421627 13.036998,5.328456 C12.942848,5.234973 12.827894,5.188537 12.692136,5.188537 L12.692136,5.188537 Z" id="Combined-shape-417"></path>
                        </g>
                    </g>
                </g>
            </g>
        </g>
    </g>
</svg>