<?xml version="1.0" encoding="UTF-8"?>
<svg width="12px" height="14px" viewBox="0 0 12 14" version="1.1" xmlns="http://www.w3.org/2000/svg" xmlns:xlink="http://www.w3.org/1999/xlink">
    <!-- Generator: sketchtool 59.1 (101010) - https://sketch.com -->
    <title>839A8199-0D18-4FEB-8DCF-A74FCDAEF0B3</title>
    <desc>Created with sketchtool.</desc>
    <g id="Page-1" stroke="none" stroke-width="1" fill="none" fill-rule="evenodd">
        <g id="Корзина" transform="translate(-1093.000000, -1102.000000)" fill="#FFFFFF">
            <g id="Footer" transform="translate(0.000000, 972.000000)">
                <g id="secondary-footer" transform="translate(79.000000, 50.000000)">
                    <g id="Follow-Us" transform="translate(1011.000000, 0.000000)">
                        <g id="pntr-icon" transform="translate(0.000000, 78.000000)">
                            <path d="M5.553914,10.19392 C6.228322,9.09768 5.337152,8.857216 5.197012,8.062944 C4.62661,4.81512 9.269738,2.597424 11.701328,4.86648 C13.384058,6.437808 12.275006,11.27048 9.56315,10.767104 C6.965142,10.288016 10.836422,6.441488 8.761734,5.68688 C7.076806,5.0728 6.181254,7.563552 6.980472,8.801248 C6.511892,10.93008 5.503556,12.934976 5.911922,15.603472 C7.236658,14.719712 7.684434,13.025696 8.0501,11.259408 C8.715758,11.631792 9.07266,12.018928 9.921144,12.0792 C13.052328,12.302144 14.801852,9.202848 14.372682,6.34248 C13.992778,3.806528 11.24588,2.515328 8.31505,2.818208 C5.998414,3.057136 3.68945,4.780064 3.593102,7.244368 C3.535072,8.748352 3.999284,9.8772 5.553914,10.19392 Z" id="Forma-1-copy-3"></path>
                        </g>
                    </g>
                </g>
            </g>
        </g>
    </g>
</svg>