<?xml version="1.0" encoding="UTF-8"?>
<svg width="14px" height="11px" viewBox="0 0 14 11" version="1.1" xmlns="http://www.w3.org/2000/svg" xmlns:xlink="http://www.w3.org/1999/xlink">
    <!-- Generator: sketchtool 59.1 (101010) - https://sketch.com -->
    <title>9EAA91D1-3754-4646-A0A7-198819DB1BA4</title>
    <desc>Created with sketchtool.</desc>
    <g id="Page-1" stroke="none" stroke-width="1" fill="none" fill-rule="evenodd">
        <g id="Корзина" transform="translate(-1093.000000, -1135.000000)" fill="#FFFFFF">
            <g id="Footer" transform="translate(0.000000, 972.000000)">
                <g id="secondary-footer" transform="translate(79.000000, 50.000000)">
                    <g id="Follow-Us" transform="translate(1011.000000, 0.000000)">
                        <g id="twt-icon" transform="translate(0.000000, 109.000000)">
                            <path d="M16.226208,5.065466 C15.70288,5.33545 15.124816,5.531945 14.507344,5.638038 C14.014672,5.178631 13.311808,4.893268 12.533392,4.893268 C11.040048,4.893268 9.828096,5.94892 9.828096,7.249947 C9.828096,7.434144 9.853264,7.614337 9.89816,7.786535 C7.6516,7.688138 5.657936,6.749655 4.323344,5.324075 C4.090144,5.671552 3.958768,6.076229 3.958768,6.50857 C3.958768,7.326517 4.436112,8.047913 5.16088,8.470426 C4.717472,8.457504 4.300352,8.351112 3.935776,8.174299 L3.935776,8.203822 C3.935776,9.345872 4.86856,10.297901 6.104608,10.514988 C5.877984,10.568808 5.639312,10.598318 5.391888,10.598318 C5.217808,10.598318 5.049216,10.58264 4.8828,10.554963 C5.227664,11.491613 6.226144,12.172722 7.409632,12.192716 C6.483424,12.824321 5.31744,13.200697 4.050736,13.200697 C3.831776,13.200697 3.616096,13.189634 3.4048,13.168418 C4.601424,13.836917 6.0236,14.227437 7.550864,14.227437 C12.526816,14.227437 15.24744,10.635836 15.24744,7.521166 L15.238688,7.215822 C15.768576,6.884946 16.2284,6.469518 16.58968,5.997813 C16.104688,6.184766 15.58464,6.311763 15.037232,6.368651 C15.5956,6.077451 16.023664,5.614664 16.226208,5.065466 Z" id="Forma-1-copy-2"></path>
                        </g>
                    </g>
                </g>
            </g>
        </g>
    </g>
</svg>